<svg width="216" height="220" viewBox="0 0 216 220" fill="none" xmlns="http://www.w3.org/2000/svg">
<path d="M5 5H23.2701C34.6101 5 43.535 14.765 42.59 26L33.875 130.58C32.405 147.695 45.9499 162.395 63.1699 162.395H174.995C190.115 162.395 203.345 150.005 204.5 134.99L210.17 56.24C211.43 38.81 198.2 24.635 180.665 24.635H45.1101" stroke="#DCDCDC" stroke-width="10" stroke-miterlimit="10" stroke-linecap="round" stroke-linejoin="round"/>
<path d="M154.625 215C161.874 215 167.75 209.124 167.75 201.875C167.75 194.626 161.874 188.75 154.625 188.75C147.376 188.75 141.5 194.626 141.5 201.875C141.5 209.124 147.376 215 154.625 215Z" stroke="#DCDCDC" stroke-width="10" stroke-miterlimit="10" stroke-linecap="round" stroke-linejoin="round"/>
<path d="M70.6252 215C77.874 215 83.7502 209.124 83.7502 201.875C83.7502 194.626 77.874 188.75 70.6252 188.75C63.3765 188.75 57.5002 194.626 57.5002 201.875C57.5002 209.124 63.3765 215 70.6252 215Z" stroke="#DCDCDC" stroke-width="10" stroke-miterlimit="10" stroke-linecap="round" stroke-linejoin="round"/>
<path d="M78.4998 68H204.5" stroke="#DCDCDC" stroke-width="10" stroke-miterlimit="10" stroke-linecap="round" stroke-linejoin="round"/>
</svg>
