<svg width="47" height="47" viewBox="0 0 47 47" fill="none" xmlns="http://www.w3.org/2000/svg">
<circle cx="23.5" cy="23.5" r="23.5" fill="white"/>
<path d="M32.0093 23.5046C32.0093 28.2046 28.2046 32.0093 23.5046 32.0093C18.8047 32.0093 15 28.2046 15 23.5046C15 18.8047 18.8047 15 23.5046 15" stroke="#C4C4C4" stroke-width="1.34284" stroke-linecap="round" stroke-linejoin="round"/>
<path d="M32.9045 32.9045L31.114 31.1141" stroke="#C4C4C4" stroke-width="1.34284" stroke-linecap="round" stroke-linejoin="round"/>
<path d="M26.1902 18.6972C25.8769 17.7125 26.244 16.486 27.2824 16.1548C27.8285 15.9757 28.4999 16.1279 28.8849 16.6561C29.243 16.11 29.9412 15.9847 30.4784 16.1548C31.5168 16.486 31.8839 17.7125 31.5705 18.6972C31.0782 20.2639 29.3593 21.0785 28.8849 21.0785C28.4014 21.0785 26.7005 20.2818 26.1902 18.6972Z" stroke="#C4C4C4" stroke-width="1.34284" stroke-linecap="round" stroke-linejoin="round"/>
</svg>
