<svg width="34" height="35" viewBox="0 0 34 35" fill="none" xmlns="http://www.w3.org/2000/svg">
<g id="&#240;&#159;&#166;&#134; icon &#34;shopping cart&#34;">
<g id="Group">
<path id="Vector" d="M1 1H3.8484C5.61637 1 7.0078 2.52241 6.86047 4.27401L5.50176 20.5786C5.27258 23.2469 7.3843 25.5387 10.069 25.5387H27.5031C29.8604 25.5387 31.923 23.607 32.1031 21.2661L32.9871 8.98858C33.1835 6.27115 31.1209 4.0612 28.3871 4.0612H7.25337" stroke="#292D32" stroke-width="2" stroke-miterlimit="10" stroke-linecap="round" stroke-linejoin="round"/>
<path id="Vector_2" d="M24.3273 33.7401C25.4574 33.7401 26.3735 32.824 26.3735 31.6938C26.3735 30.5637 25.4574 29.6476 24.3273 29.6476C23.1971 29.6476 22.281 30.5637 22.281 31.6938C22.281 32.824 23.1971 33.7401 24.3273 33.7401Z" stroke="#292D32" stroke-width="2" stroke-miterlimit="10" stroke-linecap="round" stroke-linejoin="round"/>
<path id="Vector_3" d="M11.2313 33.7401C12.3614 33.7401 13.2775 32.824 13.2775 31.6938C13.2775 30.5637 12.3614 29.6476 11.2313 29.6476C10.1012 29.6476 9.18503 30.5637 9.18503 31.6938C9.18503 32.824 10.1012 33.7401 11.2313 33.7401Z" stroke="#292D32" stroke-width="2" stroke-miterlimit="10" stroke-linecap="round" stroke-linejoin="round"/>
<path id="Vector_4" d="M12.459 10.822H32.1031" stroke="#292D32" stroke-width="2" stroke-miterlimit="10" stroke-linecap="round" stroke-linejoin="round"/>
</g>
</g>
</svg>
