<svg width="29" height="34" viewBox="0 0 29 34" fill="none" xmlns="http://www.w3.org/2000/svg">
<g id="&#240;&#159;&#166;&#134; icon &#34;location&#34;">
<g id="Group">
<path id="Vector" d="M16.3348 31.4163L16.3348 31.4163L16.3296 31.421C15.7573 31.9318 15.0171 32.2141 14.25 32.2141C13.4829 32.2141 12.7427 31.9318 12.1704 31.421L12.1704 31.4209L12.165 31.4161C10.1198 29.6172 7.301 26.898 5.00132 23.8068C2.68057 20.6874 1 17.3363 1 14.25C1 10.7359 2.39598 7.36569 4.88084 4.88083C7.36569 2.39598 10.7359 1 14.25 1C17.7641 1 21.1343 2.39598 23.6192 4.88084C26.104 7.36569 27.5 10.7359 27.5 14.25C27.5 17.3362 25.8189 20.6872 23.4978 23.8068C21.1978 26.898 18.379 29.6173 16.3348 31.4163ZM10.1841 10.1841C9.1058 11.2625 8.5 12.725 8.5 14.25C8.5 15.775 9.1058 17.2375 10.1841 18.3159C11.2625 19.3942 12.725 20 14.25 20C15.775 20 17.2375 19.3942 18.3159 18.3159C19.3942 17.2375 20 15.775 20 14.25C20 12.725 19.3942 11.2625 18.3159 10.1841C17.2375 9.1058 15.775 8.5 14.25 8.5C12.725 8.5 11.2625 9.1058 10.1841 10.1841Z" stroke="#4D4D4D" stroke-width="2"/>
</g>
</g>
</svg>
