<svg width="22" height="21" viewBox="0 0 22 21" fill="none" xmlns="http://www.w3.org/2000/svg">
<g id="&#240;&#159;&#166;&#134; icon &#34;star&#34;">
<path id="Vector" d="M16.1411 21C15.6197 21 14.9509 20.8328 14.1148 20.341L11.1739 18.6C10.8689 18.423 10.2788 18.423 9.98369 18.6L7.03289 20.341C5.29191 21.3738 4.26896 20.9607 3.80667 20.6262C3.35421 20.2918 2.64601 19.4361 3.10831 17.4689L3.80667 14.4492C3.88536 14.1344 3.72798 13.5935 3.49191 13.3574L1.05257 10.918C-0.167097 9.69838 -0.0687365 8.65576 0.0984764 8.14425C0.265689 7.63278 0.796836 6.72786 2.48864 6.44261L5.62634 5.9213C5.92142 5.87212 6.34437 5.55737 6.47224 5.2918L8.21322 1.81967C9.00008 0.236065 10.0329 0 10.5739 0C11.1148 0 12.1476 0.236065 12.9345 1.81967L14.6657 5.28196C14.8034 5.54753 15.2263 5.86229 15.5214 5.91147L18.6591 6.43278C20.3607 6.71802 20.8919 7.62294 21.0492 8.13441C21.2066 8.64592 21.305 9.68854 20.0951 10.9082L17.6558 13.3574C17.4197 13.5935 17.2722 14.1246 17.3411 14.4492L18.0394 17.4689C18.4919 19.4361 17.7935 20.2918 17.3411 20.6262C17.0952 20.8033 16.7017 21 16.1411 21ZM10.5739 16.9869C11.0558 16.9869 11.5378 17.1049 11.9214 17.3312L14.8624 19.0721C15.7181 19.5836 16.2591 19.5836 16.4656 19.4361C16.6722 19.2885 16.8197 18.7672 16.6034 17.8033L15.905 14.7836C15.7181 13.9672 16.023 12.9148 16.6132 12.3148L19.0525 9.87543C19.5345 9.39346 19.7509 8.92133 19.6525 8.59674C19.5443 8.27212 19.0919 8.00655 18.423 7.89835L15.2853 7.37704C14.5279 7.24917 13.7017 6.63934 13.3575 5.95081L11.6263 2.48852C11.3116 1.85901 10.9181 1.48524 10.5739 1.48524C10.2296 1.48524 9.83615 1.85901 9.53123 2.48852L7.79027 5.95081C7.44601 6.63934 6.61978 7.24917 5.8624 7.37704L2.73454 7.89835C2.06569 8.00655 1.61323 8.27212 1.50503 8.59674C1.39684 8.92133 1.62306 9.40329 2.10503 9.87543L4.54437 12.3148C5.13453 12.9049 5.43945 13.9672 5.25257 14.7836L4.55421 17.8033C4.32798 18.7771 4.48536 19.2885 4.69191 19.4361C4.89847 19.5836 5.42962 19.5738 6.29519 19.0721L9.23615 17.3312C9.60992 17.1049 10.0919 16.9869 10.5739 16.9869Z" fill="#F3F3F3"/>
</g>
</svg>
